{
  "title": "Annabelle 2014 720p FIRST HDCAM ENGLISH x264 Pimp4003",
  "uid": 11190425,
  "size": 1700211619,
  "categoryP": "video",
  "categoryS": "movies",
  "magnet": "?xt=urn:btih:42908268edb43a049acae7e58cf74b0e72701e8c&amp;dn=Annabelle+2014+720p+FIRST+HDCAM+ENGLISH+x264+Pimp4003&amp;tr=udp%3A%2F%2Ftracker.openbittorrent.com%3A80&amp;tr=udp%3A%2F%2Fopen.demonii.com%3A1337&amp;tr=udp%3A%2F%2Ftracker.coppersurfer.tk%3A6969&amp;tr=udp%3A%2F%2Fexodus.desync.com%3A6969",
  "seeders": 130,
  "leechers": 4,
  "uploader": "shawnmurthy",
  "files": -1,
  "time": 1412985034,
  "description": "PIMP4003 PROUDLY PRESENTS....A PIMP4003 EXCLUSIVE\n &lt;a href=&quot;\nhttp://i.imgur.com/fW5GLTr.jpg&quot; rel=&quot;nofollow&quot; target=&quot;_NEW&quot;&gt;\nhttp://i.imgur.com/fW5GLTr.jpg&lt;/a&gt;\n\nSOURCE IS PIMP4003 AND YES IN ENGLISH.....FOR THE FIRST VERSION THIS CAM IS NOT BAD AT ALL.....WAS VERY DARK IN CERTAIN PARTS BRIGHTENED IT AND FIXED THE CONTRAST AS WELL.....AUDIO WAS OUT OF SYNC FIXED THAT AS WELL............ENJOY.....PIMP4003\n &lt;a href=&quot;\nhttp://i.imgur.com/SNEuFPv.jpg&quot; rel=&quot;nofollow&quot; target=&quot;_NEW&quot;&gt;\nhttp://i.imgur.com/SNEuFPv.jpg&lt;/a&gt;\n\nFOR REQUESTS, EXCLUSIVE MOVIES AND SUPER FAST SPEEDS AND FOR SCREENSHOTS AND SAMPLE....CLICK BELOW LINK\n\nAnnabelle 2014 720p FIRST HDCAM ENGLISH x264 Pimp4003\n\nENJOY\n\nPIMP4003\n\nI HAVE INTERGRATED FULL SEEDBOX SPEED ONLY TO MY SITE.....SO IF YOU WANT FASTER SPEED DOWNLOAD FROM MY SITE...PLEASE SUPPORT ME AND VISIT MY SITE AND DOWNLOAD FROM THERE FOR FASTER SPEEDS...IT WILL HELP ME BRING ALL CAMS FOR YOU GUYS FIRST\n\nVideo\nID                                       : 1\nFormat                                   : MPEG-4 Visual\nFormat profile                           : Simple@L3\nFormat settings, BVOP                    : No\nFormat settings, QPel                    : No\nFormat settings, GMC                     : No warppoints\nFormat settings, Matrix                  : Default (H.263)\nCodec ID                                 : 20\nDuration                                 : 1h 32mn\nBit rate                                 : 2 321 Kbps\nWidth                                    : 1 280 pixels\nHeight                                   : 536 pixels\nDisplay aspect ratio                     : 2.40:1\nFrame rate mode                          : Variable\nFrame rate                               : 59.940 fps\nMinimum frame rate                       : 59.916 fps\nMaximum frame rate                       : 60.157 fps\nColor space                              : YUV\nChroma subsampling                       : 4:2:0\nBit depth                                : 8 bits\nScan type                                : Progressive\nCompression mode                         : Lossy\nBits/(Pixel*Frame)                       : 0.056\nStream size                              : 1.50 GiB (95%)\nWriting library                          : ZJMedia MPEG Encoder\n\nAudio\nID                                       : 2\nFormat                                   : AAC\nFormat/Info                              : Advanced Audio Codec\nFormat profile                           : LC\nCodec ID                                 : 40\nDuration                                 : 1h 32mn\nBit rate mode                            : Variable\nBit rate                                 : 128 Kbps\nChannel(s)                               : 2 channels\nChannel positions                        : Front: L R\nSampling rate                            : 48.0 KHz\nCompression mode                         : Lossy\nStream size                              : 84.5 MiB (5%)\n\n",
  "parsed": {
    "xt": "urn:btih:42908268edb43a049acae7e58cf74b0e72701e8c",
    "dn": "Annabelle 2014 720p FIRST HDCAM ENGLISH x264 Pimp4003",
    "tr": [
      "udp://exodus.desync.com:6969",
      "udp://open.demonii.com:1337",
      "udp://tracker.coppersurfer.tk:6969",
      "udp://tracker.openbittorrent.com:80"
    ],
    "infoHash": "42908268edb43a049acae7e58cf74b0e72701e8c",
    "infoHashBuffer": {
      "type": "Buffer",
      "data": [
        66,
        144,
        130,
        104,
        237,
        180,
        58,
        4,
        154,
        202,
        231,
        229,
        140,
        247,
        75,
        14,
        114,
        112,
        30,
        140
      ]
    },
    "name": "Annabelle 2014 720p FIRST HDCAM ENGLISH x264 Pimp4003",
    "announce": [
      "udp://exodus.desync.com:6969",
      "udp://open.demonii.com:1337",
      "udp://tracker.coppersurfer.tk:6969",
      "udp://tracker.openbittorrent.com:80"
    ],
    "urlList": []
  },
  "previous": 134,
  "peers": 1,
  "last_updated": "2016-12-24T23:23:37.316Z"
}